<svg fill="none" height="16" viewBox="0 0 140 16" width="140" xmlns="http://www.w3.org/2000/svg"><g fill="#000"><path d="m42.2366 15.3867-5.576-14.8867h3.5851l5.3439 14.8867h-2.4875l5.1498-14.8867h3.4317l-5.4224 14.8867z"/><path d="m53.2864 15.3867v-14.8867h11.3841v2.75805h-8.2442v3.28552h7.2587v2.66125h-7.2587v3.34378h8.2848v2.8364h-11.4239z"/><path d="m32.0095 15.3867v-14.8867h3.157v14.8867z"/><path d="m15.9294 15.3867v-14.8867h3.5303l9.7821 14.3501h-2.7688v-14.3501h3.1714v14.8867h-3.6911l-9.7646-14.30031h2.9692v14.30031h-3.2302z"/><path d="m0 9.91444v-9.41444h3.31116v9.28512c0 1.76018 1.13656 3.03138 3.62372 3.03138 2.48717 0 3.60202-1.2712 3.60202-3.03138v-9.28512h3.3112v9.41444c0 3.24196-2.0447 5.81846-6.91322 5.81846-4.86849 0-6.93488-2.5765-6.93488-5.81846z"/><path d="m74.2186.500031c1.1721.00001 2.1539.191155 2.9444.572269.7903.38111 1.377.92594 1.7578 1.63379.3956.70791.5928 1.55185.5928 2.53222-.0002 2.16825-1.5752 3.82659-3.4493 4.2959l4.1446 5.85249h-3.8184l-3.6396-5.33h-2.7227v5.3291h-3.1484l-.002.0009v-14.886669zm-4.1904 6.644529h3.5567c1.9841-.00005 2.5771-.94225 2.5771-2.05078 0-.42217-.1088-.77594-.3271-1.06152-.2045-.29963-.4983-.51668-.8799-.65332-.3815-.14972-.8378-.22556-1.3692-.22559h-3.5576z"/><path d="m95.523 15.3867v-14.8867h11.557v2.75805h-8.3695v3.28552h7.3685v2.66125h-7.3685v3.34378h8.4105v2.8364h-11.5971z"/><path d="m80.9826 10.8335h3.2112c.2478 1.6838 1.5067 2.3649 3.4147 2.3649.9012 0 1.7042-.1513 2.1945-.4539.503-.3159.7554-.7765.7554-1.3817 0-.3575-.0593-.6535-.1787-.8871-.1193-.2477-.318-.4398-.5959-.57777-.2788-.15131-.6425-.27518-1.0927-.37162-.4374-.09644-1.0882-.19288-1.737-.28848-.9012-.13718-1.7031-.31592-2.4049-.53623-.6889-.22031-1.2657-.49466-1.7287-.82471-.451-.34419-.7954-.76319-1.0334-1.25785-.2379-.49466-.3572-1.08659-.3572-1.7733 0-.96272.2387-1.78743.7153-2.47497.4903-.68753 1.1856-1.20963 2.0868-1.567114.9012-.371619 2.0751-.557013 3.3071-.557013 1.2321 0 2.219.185394 3.0802.557013.8611.357484 1.5308.872934 2.0075 1.547164.4902.67341.6477 1.40572.6878 2.28262h-3.1519c-.2171-1.25702-1.1826-1.95257-2.8297-1.95257-.5432 0-1.1146.06901-1.4991.20618-.3838.13717-.6826.3367-.894.59775-.1987.26105-.298.5778-.298.94858 0 .4398.1129.78398.338 1.03089.2379.23362.616.41236 1.1327.53623.5295.12388 1.3333.24775 2.1945.37162.7818.10974 1.5036.2544 2.1661.43314.6761.17874 1.2585.43314 1.7487.76319.4903.33005.8748.77649 1.1528 1.34016.2787.56366.4173 1.27859.4173 2.14489 0 .9353-.2387 1.7459-.7153 2.4334-.4767.6876-1.1856 1.2238-2.1261 1.6087-.9276.3708-2.0804.557-3.4582.557h-.0024c-4.3729 0-6.3643-1.9257-6.5074-4.8191z"/><path d="m113.557 14.6219c0-5.66192 9.025-5.95535 9.025-9.72472 0-1.65087-1.327-2.44441-2.883-2.44441-1.966 0-3.175 1.19699-3.259 2.79908h-2.843c.228-3.38339 2.511-5.098041 6.203-5.098041s5.767 1.860091 5.767 4.659171c0 4.90922-7.715 5.72572-8.483 8.29512l-.977-.2187h9.564v2.4973h-12.117v-.5435z"/><path d="m126.15 11.1591h3.163c.134 1.2538 1.389 2.3225 3.495 2.3225 1.238 0 2.163-.2643 2.775-.7929.612-.5426.918-1.252.918-2.1284 0-1.93119-1.632-2.6797-3.589-2.6797-1.58 0-2.753.72612-3.465 1.48736h-2.831l.764-8.86558h11.208v2.44752h-8.585l-.418 4.00646c.627-.72292 2.022-1.38331 4.078-1.38331.932 0 1.753.11129 2.463.33387.723.22258 1.335.5495 1.836.98075.515.41734.897.93901 1.148 1.56502.264.6121.396 1.32157.396 2.12841 0 1.1268-.285 2.0728-.855 2.8379-.571.7651-1.364 1.3425-2.379 1.732-1.002.3895-2.163.5843-3.485.5843-4.456 0-6.35-2.3163-6.637-4.5762z"/></g><path d="m108.105.475769h-.238c0 2.750061 2.137 4.907061 4.68 5.017661v.04023c-2.682.12066-4.68 2.38269-4.68 5.01764l.216-.0054c2.594 0 4.72-2.17661 4.822-4.8302v-.42337c-.112-2.65464-2.174-4.716006-4.8-4.816561z" fill="#08872b"/></svg>