<svg width="30" height="20" viewBox="0 0 30 20" fill="none" xmlns="http://www.w3.org/2000/svg">
<path d="M25.2668 5.48034L25.2722 5C19.6884 5 15.2602 9.32485 14.9777 14.4714H14.8961C14.7121 9.04373 10.1648 5 4.8147 5L4.82085 5.43709C4.76179 10.6872 9.13273 14.9904 14.5183 15.1964H15.3779C20.7705 14.9688 25.0028 10.7953 25.2668 5.48034Z" fill="white"/>
<g filter="url(#filter0_f_211_4924)">
<path d="M25.2667 5.48034L25.2721 5C19.6883 5 15.2601 9.32485 14.9776 14.4714H14.8959C14.712 9.04373 10.1646 5 4.81458 5L4.82073 5.43709C4.76167 10.6872 9.1326 14.9904 14.5182 15.1964H15.3778C20.7703 14.9688 25.0027 10.7953 25.2667 5.48034Z" fill="white"/>
</g>
<defs>
<filter id="filter0_f_211_4924" x="0.629898" y="0.815323" width="28.8269" height="18.5658" filterUnits="userSpaceOnUse" color-interpolation-filters="sRGB">
<feFlood flood-opacity="0" result="BackgroundImageFix"/>
<feBlend mode="normal" in="SourceGraphic" in2="BackgroundImageFix" result="shape"/>
<feGaussianBlur stdDeviation="2.09234" result="effect1_foregroundBlur_211_4924"/>
</filter>
</defs>
</svg>
